<svg display="none" xmlns="http://www.w3.org/2000/svg">
<symbol id="facebook" width="20" height="20" viewBox="0 0 20 20" xmlns="http://www.w3.org/2000/svg">
<g clip-path="url(#clip0)">
<path d="M13.3309 3.32083H15.1567V0.140833C14.8417 0.0975 13.7584 0 12.4967 0C9.86422 0 8.06088 1.65583 8.06088 4.69917V7.5H5.15588V11.055H8.06088V20H11.6226V11.0558H14.41L14.8525 7.50083H11.6217V5.05167C11.6226 4.02417 11.8992 3.32083 13.3309 3.32083Z" />
</g>
<defs>
<clipPath id="clip0">
<rect width="20" height="20" />
</clipPath>
</defs>
</symbol>

<symbol id="instagram" width="20" height="20" viewBox="0 0 20 20"  xmlns="http://www.w3.org/2000/svg">
<path d="M14.4805 0H5.51913C2.47588 0 0 2.476 0 5.51924V14.4806C0 17.524 2.47588 19.9999 5.51913 19.9999H14.4805C17.524 19.9999 19.9999 17.5239 19.9999 14.4806V5.51924C20 2.476 17.524 0 14.4805 0ZM18.2255 14.4806C18.2255 16.5455 16.5455 18.2254 14.4806 18.2254H5.51913C3.45433 18.2255 1.77449 16.5455 1.77449 14.4806V5.51924C1.77449 3.45445 3.45433 1.77449 5.51913 1.77449H14.4805C16.5454 1.77449 18.2254 3.45445 18.2254 5.51924V14.4806H18.2255Z" />
<path d="M9.9999 4.84644C7.15824 4.84644 4.84644 7.15824 4.84644 9.9999C4.84644 12.8414 7.15824 15.1531 9.9999 15.1531C12.8416 15.1531 15.1534 12.8414 15.1534 9.9999C15.1534 7.15824 12.8416 4.84644 9.9999 4.84644ZM9.9999 13.3785C8.13681 13.3785 6.62092 11.8629 6.62092 9.99978C6.62092 8.13657 8.13669 6.6208 9.9999 6.6208C11.8631 6.6208 13.3789 8.13657 13.3789 9.99978C13.3789 11.8629 11.863 13.3785 9.9999 13.3785Z" />
<path d="M15.3696 3.34204C15.0278 3.34204 14.6919 3.48045 14.4505 3.72296C14.2078 3.96429 14.0684 4.30026 14.0684 4.64333C14.0684 4.98533 14.208 5.32118 14.4505 5.5637C14.6918 5.80503 15.0278 5.94462 15.3696 5.94462C15.7127 5.94462 16.0475 5.80503 16.29 5.5637C16.5325 5.32118 16.6709 4.98522 16.6709 4.64333C16.6709 4.30026 16.5325 3.96429 16.29 3.72296C16.0487 3.48045 15.7127 3.34204 15.3696 3.34204Z" />
</symbol>

<symbol id="mail" width="20" height="20" viewBox="0 0 20 20" xmlns="http://www.w3.org/2000/svg">
<g clip-path="url(#clip0)">
<path d="M19.78 4.51976C19.1309 2.42518 17.1928 0.997971 15 0.999758H4.99998C2.80715 0.998017 0.869077 2.42523 0.219983 4.51976C0.0756635 4.99994 0.00155724 5.49844 0 5.99978V13.9998C0.00100763 16.7608 2.23899 18.9988 4.99998 18.9998H15C17.761 18.9987 19.999 16.7608 20 13.9998V5.99978C19.9984 5.49844 19.9243 4.99994 19.78 4.51976ZM4.99998 2.9998H15C16.4697 3.00402 17.7213 4.06954 17.96 5.51978L9.99995 9.85977L2.03998 5.51978C2.27865 4.06954 3.53022 3.00397 4.99998 2.9998ZM18 13.9998C17.9951 15.6546 16.6549 16.9949 15 16.9998H4.99998C3.34513 16.9949 2.00481 15.6546 2 13.9998V7.7798L9.52 11.8798C9.81991 12.0402 10.1801 12.0402 10.48 11.8798L18 7.7798V13.9998Z" />
</g>
<defs>
<clipPath id="clip0">
<rect width="20" height="20" />
</clipPath>
</defs>
</symbol>

<symbol id="vk" width="20" height="20" viewBox="0 0 20 20" xmlns="http://www.w3.org/2000/svg">
<g clip-path="url(#clip0)">
<path d="M19.8218 14.4726C19.7681 14.3825 19.4356 13.66 17.8354 12.1749C16.1603 10.6198 16.3853 10.8723 18.403 8.18333C19.6318 6.54571 20.1231 5.54564 19.9693 5.11811C19.8231 4.71058 18.9193 4.81808 18.9193 4.81808L15.9141 4.83559C15.9141 4.83559 15.6915 4.80558 15.5253 4.90434C15.364 5.00185 15.2603 5.22686 15.2603 5.22686C15.2603 5.22686 14.784 6.49446 14.1489 7.57204C12.8101 9.84596 12.2738 9.96597 12.055 9.82471C11.5462 9.49593 11.6737 8.50211 11.6737 7.79706C11.6737 5.59314 12.0075 4.67432 11.0224 4.43681C10.6949 4.35805 10.4549 4.30555 9.6186 4.2968C8.54602 4.28554 7.6372 4.30055 7.12342 4.55181C6.78089 4.71933 6.51712 5.09311 6.67838 5.11436C6.87715 5.14061 7.32718 5.23562 7.56595 5.56064C7.87472 5.97942 7.86347 6.92199 7.86347 6.92199C7.86347 6.92199 8.04098 9.51593 7.44969 9.83846C7.04341 10.0597 6.48712 9.60844 5.29328 7.54454C4.68199 6.48821 4.21946 5.31937 4.21946 5.31937C4.21946 5.31937 4.1307 5.10186 3.97194 4.9856C3.77942 4.84434 3.50941 4.79933 3.50941 4.79933L0.651698 4.81683C0.651698 4.81683 0.222917 4.82934 0.0654059 5.0156C-0.0746043 5.18186 0.054155 5.52439 0.054155 5.52439C0.054155 5.52439 2.29182 10.7585 4.8245 13.3975C7.14842 15.8164 9.78611 15.6576 9.78611 15.6576H10.9812C10.9812 15.6576 11.3425 15.6176 11.5262 15.4189C11.6962 15.2364 11.69 14.8938 11.69 14.8938C11.69 14.8938 11.6662 13.29 12.4113 13.0537C13.1451 12.8212 14.0877 14.6038 15.0865 15.2901C15.8415 15.8089 16.4153 15.6951 16.4153 15.6951L19.0868 15.6576C19.0868 15.6576 20.4844 15.5714 19.8218 14.4726Z" />
</g>
<defs>
<clipPath id="clip0">
<rect width="20" height="20" />
</clipPath>
</defs>
</symbol>
</svg>